<?xml version="1.0" standalone="no"?>
<!DOCTYPE svg PUBLIC "-//W3C//DTD SVG 20010904//EN"
 "http://www.w3.org/TR/2001/REC-SVG-20010904/DTD/svg10.dtd">
<svg version="1.0" xmlns="http://www.w3.org/2000/svg"
 width="1105.000000pt" height="1105.000000pt" viewBox="0 0 1105.000000 1105.000000"
 preserveAspectRatio="xMidYMid meet">
<metadata>
Created by potrace 1.14, written by Peter Selinger 2001-2017
</metadata>
<g transform="translate(0.000000,1105.000000) scale(0.100000,-0.100000)"
fill="#000000" stroke="none">
<path d="M5280 9585 c-165 -13 -254 -31 -425 -86 -233 -73 -345 -126 -540
-255 -251 -165 -512 -444 -656 -700 -9 -16 -42 -69 -73 -118 -31 -48 -56 -89
-56 -91 0 -1 -25 -42 -55 -91 -63 -103 -100 -164 -152 -251 -105 -174 -158
-261 -178 -293 -12 -19 -43 -68 -69 -108 -25 -40 -46 -75 -46 -77 0 -2 -31
-54 -70 -116 -38 -61 -70 -113 -70 -116 0 -2 -19 -34 -42 -71 -51 -80 -51 -80
-125 -202 -32 -52 -62 -102 -68 -112 -5 -10 -35 -57 -65 -105 -30 -49 -57 -92
-59 -98 -2 -5 -35 -58 -72 -117 -38 -59 -78 -124 -89 -145 -12 -21 -40 -68
-63 -105 -90 -144 -209 -338 -271 -444 -25 -42 -78 -128 -189 -309 -98 -159
-193 -314 -204 -335 -8 -14 -34 -56 -58 -95 -24 -38 -53 -87 -65 -107 -11 -21
-44 -75 -74 -121 -29 -46 -63 -101 -75 -123 -12 -21 -44 -75 -72 -119 -91
-141 -194 -361 -243 -515 -76 -241 -88 -318 -93 -601 -5 -269 5 -363 63 -579
204 -757 812 -1353 1549 -1519 289 -64 200 -62 2990 -59 l2550 4 125 22 c251
44 390 87 595 187 222 108 354 200 533 370 190 179 372 437 472 664 42 98 100
249 100 263 0 6 9 41 20 77 46 154 62 288 61 534 0 206 -3 247 -26 366 -37
195 -106 413 -164 521 -4 8 -28 53 -51 100 -40 77 -64 118 -134 230 -13 19
-37 60 -56 90 -73 121 -312 513 -390 640 -45 74 -92 151 -102 170 -11 19 -28
46 -38 60 -9 14 -59 95 -110 180 -94 157 -214 352 -302 492 -26 42 -48 79 -48
81 0 3 -31 54 -68 114 -58 93 -156 252 -195 318 -7 11 -31 50 -54 88 -24 37
-43 70 -43 74 0 3 -11 21 -25 39 -14 18 -25 35 -25 38 0 3 -22 40 -49 83 -26
43 -81 132 -121 198 -40 66 -101 165 -135 220 -34 55 -75 122 -91 149 -43 73
-91 153 -165 273 -199 325 -259 423 -289 473 -145 239 -265 386 -458 558 -142
128 -256 204 -457 305 -102 52 -131 63 -300 117 -173 54 -250 70 -435 86 -190
16 -213 16 -410 -1z m470 -290 c121 -16 259 -50 376 -93 87 -33 243 -105 284
-132 210 -138 294 -205 400 -316 83 -88 177 -208 230 -296 19 -31 51 -83 71
-115 93 -149 204 -332 227 -373 13 -25 30 -52 37 -60 6 -8 39 -60 72 -115 33
-55 98 -161 143 -235 46 -74 94 -153 107 -175 25 -43 26 -43 91 -147 23 -38
42 -71 42 -74 0 -3 15 -29 34 -57 33 -50 155 -249 241 -392 23 -38 61 -99 83
-135 22 -36 68 -112 103 -170 34 -58 72 -121 85 -140 20 -31 125 -203 214
-350 19 -30 54 -89 79 -130 25 -42 51 -84 58 -95 18 -31 130 -214 238 -390 54
-88 117 -191 140 -230 44 -73 147 -240 286 -467 115 -187 135 -223 194 -353
109 -240 154 -456 155 -740 0 -233 -32 -413 -110 -620 -53 -143 -168 -363
-225 -433 -7 -9 -35 -45 -61 -80 -141 -190 -381 -386 -619 -505 -127 -63 -271
-114 -405 -144 -176 -39 -233 -43 -562 -43 l-328 0 0 1865 0 1865 -1940 0
-1940 0 0 -1865 0 -1865 -327 0 c-340 1 -395 6 -603 54 -454 106 -870 419
-1122 846 -74 126 -88 154 -141 295 -164 434 -155 899 26 1339 37 91 137 270
247 446 14 22 92 149 173 282 82 134 187 306 234 383 47 77 94 154 103 170 10
17 40 65 66 108 27 43 54 86 59 96 6 9 51 83 100 164 50 81 108 177 131 214
23 38 84 139 137 226 54 87 97 162 97 166 0 5 7 14 16 22 8 7 26 33 40 58 13
25 44 78 69 116 25 39 48 77 52 85 3 8 22 40 41 70 20 30 40 64 46 75 6 11 43
72 82 135 39 63 104 169 144 235 69 115 127 209 175 285 12 19 35 57 51 84 49
83 95 158 204 336 58 94 121 197 140 229 194 323 306 477 430 594 300 282 670
456 1055 496 61 6 124 13 140 15 46 6 218 -4 335 -19z"/>
</g>
</svg>
